<?xml version="1.0" standalone="no"?>
<!DOCTYPE svg PUBLIC "-//W3C//DTD SVG 20010904//EN"
 "http://www.w3.org/TR/2001/REC-SVG-20010904/DTD/svg10.dtd">
<svg version="1.0" xmlns="http://www.w3.org/2000/svg"
 width="1024.000000pt" height="1024.000000pt" viewBox="0 0 1024.000000 1024.000000"
 preserveAspectRatio="xMidYMid meet">
<g transform="translate(0.000000,1024.000000) scale(0.100000,-0.100000)"
fill="#000000" stroke="none">
<path d="M4545 8035 c-49 -12 -102 -26 -117 -29 -25 -6 -28 -11 -28 -46 0 -31
4 -40 18 -40 16 0 17 -13 14 -163 l-3 -163 -277 -51 -277 -51 -161 -164 c-88
-90 -178 -182 -200 -206 l-39 -42 -273 -46 -273 -46 -133 -137 c-121 -124
-243 -253 -665 -699 -161 -171 -161 -161 4 -137 55 8 103 15 108 15 4 0 7
-283 7 -630 l0 -630 -275 0 -275 0 0 80 0 80 240 0 241 0 -3 76 -3 75 -237 -1
-238 -1 0 69 0 69 -51 43 c-28 24 -54 39 -58 34 -3 -5 -22 -22 -41 -38 -33
-27 -35 -33 -40 -100 l-5 -71 -128 0 -127 0 0 -77 0 -78 130 0 130 0 0 -80 0
-80 -130 0 -130 0 0 -314 0 -314 98 -11 c217 -27 511 -80 792 -144 l55 -12 2
-83 c1 -72 -1 -82 -16 -82 -10 0 -98 18 -197 40 -184 40 -483 94 -589 104 -33
4 -79 9 -102 12 l-43 5 0 -83 0 -84 137 -17 c147 -18 437 -75 668 -131 l140
-33 2 -72 c0 -39 -3 -71 -8 -71 -5 0 -107 23 -226 50 -235 55 -463 101 -583
119 -41 7 -87 14 -102 16 l-28 5 0 -100 0 -100 29 0 c93 0 683 -143 1091 -264
800 -237 1494 -516 2350 -943 514 -256 897 -466 1087 -595 23 -15 47 -28 53
-28 6 0 78 38 158 84 650 371 1504 718 2595 1051 l117 36 0 571 0 571 -167 -7
c-497 -19 -1317 -120 -1933 -236 -85 -16 -176 -32 -202 -36 l-48 -6 0 100 0
99 38 7 c439 76 990 150 1412 190 226 22 351 30 788 52 l112 6 0 79 0 79 -92
-5 c-51 -2 -174 -7 -273 -10 -496 -15 -1556 -130 -1957 -211 l-28 -6 0 100 0
100 28 6 c53 11 390 56 562 75 619 70 1027 100 1552 117 l207 6 3 142 c3 129
0 157 -34 331 -33 166 -133 644 -169 805 -14 64 -6 87 -69 -190 -23 -102 -64
-277 -90 -390 -27 -113 -60 -258 -76 -323 l-27 -118 37 -53 c20 -29 36 -54 36
-57 0 -2 -87 -1 -192 2 -106 4 -214 7 -240 8 l-48 1 0 130 0 130 33 0 c30 0
45 12 135 108 55 60 112 123 127 140 l26 31 -26 113 c-14 62 -51 228 -81 368
-30 140 -62 282 -69 315 -8 33 -37 161 -65 285 -70 314 -131 564 -139 572 -4
5 -17 -31 -29 -80 -33 -126 -138 -566 -156 -648 -16 -75 -168 -732 -191 -829
-18 -71 -23 -62 112 -210 54 -59 108 -121 121 -136 19 -24 31 -29 68 -29 l44
0 0 -131 0 -131 -122 6 c-68 3 -267 11 -443 16 -176 6 -434 15 -574 20 -140 6
-278 10 -308 10 l-53 0 0 879 0 879 253 305 c138 168 255 305 259 304 3 -1
120 -153 258 -337 138 -184 259 -342 268 -352 15 -14 28 -15 115 -6 57 7 97
16 97 22 0 13 -19 41 -322 491 -362 538 -340 507 -363 501 -47 -12 -472 -86
-490 -86 -14 1 -63 61 -173 213 -84 117 -172 240 -195 274 -23 34 -44 62 -47
62 -3 0 -20 -19 -39 -42 -18 -23 -79 -94 -136 -157 -162 -181 -619 -699 -743
-842 -62 -72 -152 -174 -201 -227 l-89 -96 -59 -2 c-32 -1 -233 -27 -448 -57
-393 -56 -633 -86 -670 -85 -53 2 487 114 1010 209 94 17 102 20 135 58 19 21
76 84 125 139 127 140 368 411 659 738 137 154 281 313 320 353 39 39 66 72
60 72 -6 0 -215 -38 -464 -85 -249 -47 -477 -88 -507 -92 l-54 -6 3 119 c3
108 5 119 21 118 15 -2 18 5 15 38 l-3 41 -100 28 c-55 16 -107 28 -115 28 -8
-1 -55 -11 -105 -24z m1282 -557 c21 -29 77 -102 123 -162 54 -71 79 -111 71
-115 -6 -4 -87 -20 -179 -35 -92 -15 -176 -34 -187 -41 -11 -7 -56 -57 -100
-111 -44 -55 -143 -175 -220 -269 -284 -346 -294 -360 -281 -363 8 -2 148 19
313 47 164 27 357 57 428 65 72 9 163 21 203 26 89 12 132 12 82 -1 -19 -4
-102 -22 -185 -39 -391 -81 -480 -102 -464 -110 8 -4 67 -16 131 -26 65 -9
123 -21 130 -25 10 -7 13 -176 13 -816 0 -781 -1 -808 -19 -811 -10 -2 -38 -1
-62 3 l-44 6 0 505 c0 277 -3 504 -7 504 -5 0 -53 7 -108 15 -55 8 -106 15
-114 15 -12 0 -13 -51 -8 -327 3 -181 3 -386 -1 -458 l-7 -130 -57 220 c-93
363 -141 535 -150 535 -4 0 -8 -5 -8 -11 0 -6 -8 -23 -19 -37 -10 -15 -36 -61
-58 -102 -60 -111 -230 -424 -277 -510 l-41 -75 -3 739 c-2 619 0 743 12 760
12 19 191 221 320 361 25 28 197 224 383 437 186 213 341 387 344 387 3 1 24
-23 46 -51z m-1637 -1938 c0 -80 -3 -112 -12 -114 -7 -3 -48 -7 -90 -10 l-78
-6 0 115 0 114 48 4 c26 2 66 4 90 5 l42 2 0 -110z m-235 -16 c4 -58 3 -110
-1 -114 -5 -4 -46 -10 -92 -12 l-83 -3 3 110 3 110 50 6 c28 3 64 7 81 7 l32
2 7 -106z m-825 -69 c0 -120 4 -115 -106 -115 l-74 0 0 104 0 105 43 5 c59 8
121 12 130 8 4 -2 7 -50 7 -107z m-230 -14 l0 -108 -52 -7 c-29 -3 -68 -6 -85
-6 l-33 0 0 105 c0 121 -7 115 143 123 l27 2 0 -109z m1288 -203 l-3 -123 -87
-3 -88 -3 0 120 0 120 58 4 c31 2 72 4 90 5 l33 2 -3 -122z m-238 -17 l0 -118
-52 -7 c-29 -3 -68 -6 -85 -6 l-33 0 0 120 0 119 58 4 c31 2 69 4 85 5 l27 2
0 -119z m-820 -50 l0 -108 -31 -7 c-17 -3 -58 -6 -90 -6 l-59 0 0 109 0 110
33 4 c17 2 58 5 90 5 l57 2 0 -109z m-230 -21 c0 -109 0 -110 -24 -110 -12 0
-51 -3 -85 -6 l-61 -7 0 111 0 111 28 4 c15 2 53 5 85 6 l57 1 0 -110z m3270
-1034 l0 -104 -97 -17 c-248 -43 -631 -126 -983 -211 -167 -41 -507 -130 -533
-140 -15 -6 -17 4 -17 108 l0 114 273 67 c445 110 856 198 1212 261 77 13 141
25 143 25 1 1 2 -46 2 -103z m-3415 -271 c171 -41 450 -114 620 -161 l311 -86
139 50 c146 52 464 152 484 152 8 0 11 -32 9 -112 l-3 -112 -95 -27 c-52 -15
-182 -58 -288 -94 l-194 -67 -181 56 c-354 107 -827 233 -1079 287 l-58 12 0
93 c0 70 3 92 13 89 6 -2 152 -38 322 -80z m3415 -118 l0 -102 -117 -24 c-194
-39 -323 -69 -633 -147 -242 -61 -546 -146 -556 -157 -2 -1 101 -38 229 -81
367 -124 754 -277 1002 -397 114 -55 386 -201 382 -206 -2 -2 -60 15 -128 36
-68 22 -212 67 -319 101 -107 33 -219 69 -247 79 -29 10 -53 17 -53 16 0 -3
321 -233 363 -260 57 -37 16 -24 -81 25 -55 27 -103 50 -106 50 -27 0 -624
286 -746 357 l-85 50 -129 -34 -128 -34 -182 80 c-99 44 -230 99 -291 121
-218 82 -245 93 -242 96 2 2 51 21 109 43 l105 40 98 -30 c54 -16 102 -29 107
-29 4 0 8 11 8 24 0 75 6 83 98 111 332 104 854 232 1398 344 76 16 140 30
142 30 1 1 2 -45 2 -102z m-3556 -213 c324 -86 584 -164 925 -276 l214 -71
-39 -14 c-157 -57 -212 -74 -239 -70 -16 3 -129 39 -251 80 -263 91 -537 175
-766 238 l-38 10 0 74 c0 51 4 75 12 75 6 0 88 -21 182 -46z m1646 -524 c25
-10 83 -36 130 -58 l85 -40 -90 -27 c-49 -15 -108 -33 -130 -40 -97 -32 -99
-31 -285 45 -96 39 -179 74 -184 78 -6 3 1 9 14 13 14 5 88 28 164 53 l140 44
55 -25 c31 -14 76 -33 101 -43z m785 -255 c101 -74 316 -248 337 -271 9 -11
-91 33 -223 98 l-240 118 -96 -25 c-52 -14 -99 -22 -104 -19 -5 3 -9 2 -8 -3
0 -8 87 -83 193 -166 33 -27 64 -52 68 -55 4 -4 -103 47 -237 112 -135 66
-245 123 -245 127 0 3 78 29 173 57 94 28 195 57 222 66 28 8 58 15 68 15 10
1 51 -24 92 -54z"/>
<path d="M6700 6581 l0 -98 31 -7 c71 -14 69 -16 69 89 0 103 2 100 -62 109
l-38 5 0 -98z"/>
<path d="M6825 6563 l0 -98 50 -7 c27 -4 54 -3 59 2 5 5 5 47 1 94 l-7 85 -36
7 c-21 3 -44 8 -52 10 -13 3 -15 -12 -15 -93z"/>
<path d="M6690 6337 c0 -105 1 -107 70 -107 l37 0 -5 93 c-2 50 -6 94 -8 96
-2 2 -23 6 -49 8 l-45 6 0 -96z"/>
<path d="M6828 6319 l-3 -97 35 -6 c19 -3 46 -6 59 -6 l24 0 -7 92 c-4 51 -9
94 -11 97 -3 2 -25 7 -49 11 l-45 7 -3 -98z"/>
<path d="M6610 5581 c0 -55 3 -102 8 -104 4 -3 46 -8 95 -12 l87 -7 0 100 0
100 -57 6 c-32 4 -75 9 -95 12 l-38 6 0 -101z"/>
<path d="M6848 5552 l3 -99 46 -7 c25 -3 65 -6 89 -6 l44 0 0 94 c0 109 8 101
-110 111 l-75 7 3 -100z"/>
<path d="M6610 5257 c0 -91 3 -168 8 -170 4 -3 46 -8 95 -12 l87 -7 0 165 0
164 -52 7 c-29 4 -72 9 -95 12 l-43 6 0 -165z"/>
<path d="M6849 5398 c-7 -23 -8 -78 -3 -194 l6 -141 89 -9 89 -10 0 167 0 167
-67 7 c-38 3 -78 8 -90 11 -13 2 -23 3 -24 2z"/>
<path d="M1250 3207 l0 -82 93 -24 c157 -40 434 -120 617 -178 96 -30 184 -58
195 -61 71 -19 579 -199 775 -274 232 -90 610 -247 687 -287 37 -18 62 -20
287 -23 135 -2 246 -2 246 -1 0 12 -462 227 -733 342 -699 296 -1579 570
-2134 665 l-33 6 0 -83z"/>
<path d="M3510 1298 l0 -181 -22 20 c-44 40 -90 56 -159 56 -159 0 -273 -127
-272 -303 0 -83 15 -136 56 -196 48 -73 112 -108 204 -112 64 -4 80 -1 129 23
30 15 58 33 61 41 10 26 23 14 23 -21 l0 -35 85 0 85 0 0 445 0 445 -95 0 -95
0 0 -182z m-57 -286 c32 -19 67 -85 67 -128 0 -41 -31 -95 -70 -121 -68 -47
-164 -19 -194 57 -58 146 67 267 197 192z"/>
<path d="M3860 1035 l0 -445 95 0 95 0 0 164 c0 90 3 177 6 195 9 44 50 81 90
81 86 0 94 -22 94 -255 l0 -186 98 3 97 3 0 210 c0 231 -6 263 -58 321 -43 50
-81 67 -152 67 -68 0 -95 -11 -142 -56 l-33 -31 0 187 0 187 -95 0 -95 0 0
-445z"/>
<path d="M2774 1451 c-44 -27 -60 -77 -40 -124 21 -50 56 -71 112 -64 52 5 79
26 94 72 31 93 -79 169 -166 116z"/>
<path d="M2232 1185 c-104 -29 -187 -111 -213 -210 -18 -66 -6 -182 24 -241
77 -150 295 -206 458 -117 45 24 89 65 89 82 0 5 -98 69 -122 79 -5 2 -21 -7
-37 -21 -74 -62 -204 -31 -234 56 -6 16 8 17 208 17 l215 0 0 40 c0 139 -70
261 -178 306 -54 22 -148 27 -210 9z m152 -136 c23 -11 56 -62 56 -88 0 -7
-41 -11 -126 -11 -125 0 -125 0 -119 23 4 12 22 37 41 55 28 26 42 32 78 32
25 0 56 -5 70 -11z"/>
<path d="M4730 1185 c-56 -16 -128 -54 -148 -78 -9 -10 -1 -23 37 -61 l48 -47
48 25 c93 50 205 23 205 -48 0 -9 -26 -15 -85 -19 -161 -11 -263 -65 -286
-149 -22 -85 13 -162 93 -202 82 -41 196 -33 252 19 l26 24 0 -29 0 -30 90 0
90 0 0 193 c0 212 -11 274 -57 336 -14 18 -46 42 -70 53 -60 26 -172 32 -243
13z m190 -365 c0 -69 -45 -110 -120 -110 -45 0 -80 27 -80 60 0 25 32 58 62
64 13 3 32 7 43 9 11 3 37 5 58 6 35 1 37 -1 37 -29z"/>
<path d="M6100 1187 c-109 -31 -161 -90 -161 -182 0 -100 40 -137 201 -187 66
-20 75 -26 78 -49 8 -68 -94 -71 -193 -6 -18 12 -25 9 -74 -44 l-53 -58 47
-30 c137 -87 361 -69 429 36 51 78 43 167 -20 223 -40 35 -62 45 -149 67 -74
18 -102 42 -86 71 21 39 93 39 159 -1 l34 -20 51 51 c50 50 51 52 33 71 -46
51 -210 83 -296 58z"/>
<path d="M7071 1184 c-70 -19 -111 -44 -161 -101 -96 -110 -93 -292 7 -403 75
-83 191 -121 307 -101 67 12 151 50 151 69 0 7 -22 39 -48 72 l-48 59 -32 -19
c-64 -40 -158 -15 -192 49 -19 38 -19 113 0 151 35 68 124 92 191 51 l31 -19
51 60 c29 33 52 63 52 68 0 15 -65 49 -125 65 -72 18 -113 18 -184 -1z"/>
<path d="M7662 1185 c-77 -22 -104 -38 -156 -96 -58 -64 -81 -135 -73 -226 15
-191 182 -315 379 -283 197 33 310 215 253 408 -22 73 -99 154 -172 182 -75
28 -164 34 -231 15z m166 -171 c82 -53 82 -204 0 -254 -68 -41 -159 -16 -191
53 -66 137 69 279 191 201z"/>
<path d="M8507 1186 c-29 -8 -62 -27 -83 -47 l-34 -33 0 37 0 37 -95 0 -95 0
0 -295 0 -295 100 0 100 0 0 188 c0 160 3 191 17 212 23 35 33 40 73 40 74 0
80 -19 80 -249 l0 -191 99 0 100 0 3 194 c3 190 4 195 27 220 19 20 34 26 68
26 72 0 77 -18 81 -247 l4 -193 95 0 94 0 -3 228 c-3 213 -4 230 -25 269 -43
80 -135 121 -229 104 -47 -9 -107 -43 -127 -72 -13 -18 -15 -17 -43 12 -55 58
-125 76 -207 55z"/>
<path d="M940 1177 c0 -1 45 -132 100 -291 55 -159 100 -290 100 -292 0 -2 44
-4 98 -4 l98 0 53 175 c30 96 57 175 61 175 3 0 31 -79 61 -175 l54 -175 96 0
97 0 12 33 c36 102 190 549 190 553 0 2 -45 4 -100 4 -55 0 -100 -2 -100 -4 0
-7 -90 -330 -96 -346 -3 -8 -19 29 -36 85 -16 55 -40 137 -54 183 l-25 82 -97
0 -97 0 -50 -180 c-27 -99 -52 -180 -55 -180 -3 0 -13 30 -23 68 -10 37 -32
118 -49 180 l-30 112 -104 0 c-57 0 -104 -1 -104 -3z"/>
<path d="M2740 885 l0 -295 95 0 95 0 0 295 0 295 -95 0 -95 0 0 -295z"/>
<path d="M5240 963 c0 -198 2 -222 21 -263 25 -56 44 -77 91 -101 77 -40 208
-15 258 48 l20 26 0 -42 0 -41 90 0 90 0 0 295 0 295 -95 0 -95 0 0 -174 c0
-96 -4 -186 -10 -200 -26 -69 -104 -90 -151 -40 -23 25 -24 30 -27 220 l-4
194 -94 0 -94 0 0 -217z"/>
<path d="M6558 794 c-79 -42 -74 -160 8 -199 97 -46 204 49 163 146 -25 61
-110 87 -171 53z"/>
</g>
</svg>
