<?xml version="1.0" encoding="UTF-8" standalone="no"?><svg xmlns="http://www.w3.org/2000/svg" xmlns:xlink="http://www.w3.org/1999/xlink" width="257" zoomAndPan="magnify" viewBox="0 0 192.75 72.749999" height="97" preserveAspectRatio="xMidYMid meet" version="1.0"><defs><g/><clipPath id="28685eb0d5"><path d="M 0.207031 31.320312 L 13.917969 31.320312 L 13.917969 38.367188 L 0.207031 38.367188 Z M 0.207031 31.320312 " clip-rule="nonzero"/></clipPath><clipPath id="8d6cd1855d"><path d="M 1.699219 31.320312 L 12.398438 31.320312 C 12.796875 31.320312 13.175781 31.476562 13.457031 31.757812 C 13.738281 32.035156 13.894531 32.417969 13.894531 32.8125 L 13.894531 36.871094 C 13.894531 37.269531 13.738281 37.648438 13.457031 37.929688 C 13.175781 38.210938 12.796875 38.367188 12.398438 38.367188 L 1.699219 38.367188 C 1.304688 38.367188 0.921875 38.210938 0.644531 37.929688 C 0.363281 37.648438 0.207031 37.269531 0.207031 36.871094 L 0.207031 32.8125 C 0.207031 32.417969 0.363281 32.035156 0.644531 31.757812 C 0.921875 31.476562 1.304688 31.320312 1.699219 31.320312 Z M 1.699219 31.320312 " clip-rule="nonzero"/></clipPath><clipPath id="7a0e6129e5"><path d="M 181.695312 34.84375 L 192.179688 34.84375 L 192.179688 45.328125 L 181.695312 45.328125 Z M 181.695312 34.84375 " clip-rule="nonzero"/></clipPath><clipPath id="be1689f833"><path d="M 186.9375 34.84375 C 184.042969 34.84375 181.695312 37.191406 181.695312 40.085938 C 181.695312 42.980469 184.042969 45.328125 186.9375 45.328125 C 189.832031 45.328125 192.179688 42.980469 192.179688 40.085938 C 192.179688 37.191406 189.832031 34.84375 186.9375 34.84375 Z M 186.9375 34.84375 " clip-rule="nonzero"/></clipPath><clipPath id="603db63ec3"><path d="M 3.140625 49.757812 L 189.226562 49.757812 L 189.226562 71.433594 L 3.140625 71.433594 Z M 3.140625 49.757812 " clip-rule="nonzero"/></clipPath><clipPath id="ea449a51f6"><path d="M 14.089844 49.757812 L 178.132812 49.757812 C 184.179688 49.757812 189.082031 54.660156 189.082031 60.707031 C 189.082031 66.753906 184.179688 71.65625 178.132812 71.65625 L 14.089844 71.65625 C 8.042969 71.65625 3.140625 66.753906 3.140625 60.707031 C 3.140625 54.660156 8.042969 49.757812 14.089844 49.757812 Z M 14.089844 49.757812 " clip-rule="nonzero"/></clipPath></defs><g clip-path="url(#28685eb0d5)"><g clip-path="url(#8d6cd1855d)"><path fill="#ffffff" d="M 0.207031 31.320312 L 13.890625 31.320312 L 13.890625 38.367188 L 0.207031 38.367188 Z M 0.207031 31.320312 " fill-opacity="1" fill-rule="nonzero"/></g></g><g clip-path="url(#7a0e6129e5)"><g clip-path="url(#be1689f833)"><path fill="#ffffff" d="M 181.695312 34.84375 L 192.179688 34.84375 L 192.179688 45.328125 L 181.695312 45.328125 Z M 181.695312 34.84375 " fill-opacity="1" fill-rule="nonzero"/></g></g><g clip-path="url(#603db63ec3)"><g clip-path="url(#ea449a51f6)"><path stroke-linecap="butt" transform="matrix(0.747431, 0, 0, 0.747431, 3.142349, 49.759347)" fill="none" stroke-linejoin="miter" d="M 14.646821 -0.00205275 L 234.122419 -0.00205275 C 242.212626 -0.00205275 248.771546 6.556868 248.771546 14.647075 C 248.771546 22.737281 242.212626 29.296202 234.122419 29.296202 L 14.646821 29.296202 C 6.556614 29.296202 -0.00230623 22.737281 -0.00230623 14.647075 C -0.00230623 6.556868 6.556614 -0.00205275 14.646821 -0.00205275 Z M 14.646821 -0.00205275 " stroke="#ffffff" stroke-width="2" stroke-opacity="1" stroke-miterlimit="4"/></g></g><g fill="#ffffff" fill-opacity="1"><g transform="translate(14.12427, 64.822145)"><g><path d="M 6.109375 -8.765625 C 6.210938 -8.765625 6.300781 -8.726562 6.375 -8.65625 C 6.445312 -8.582031 6.484375 -8.492188 6.484375 -8.390625 C 6.484375 -8.285156 6.445312 -8.195312 6.375 -8.125 C 6.300781 -8.050781 6.210938 -8.015625 6.109375 -8.015625 L 1.9375 -8.015625 L 1.9375 -4.875 L 5.546875 -4.875 C 5.648438 -4.875 5.738281 -4.84375 5.8125 -4.78125 C 5.882812 -4.71875 5.921875 -4.628906 5.921875 -4.515625 C 5.921875 -4.410156 5.882812 -4.320312 5.8125 -4.25 C 5.738281 -4.1875 5.648438 -4.15625 5.546875 -4.15625 L 1.9375 -4.15625 L 1.9375 -0.375 C 1.9375 -0.269531 1.898438 -0.179688 1.828125 -0.109375 C 1.765625 -0.0351562 1.675781 0 1.5625 0 C 1.445312 0 1.351562 -0.0351562 1.28125 -0.109375 C 1.207031 -0.179688 1.171875 -0.269531 1.171875 -0.375 L 1.171875 -8.390625 C 1.171875 -8.492188 1.207031 -8.582031 1.28125 -8.65625 C 1.351562 -8.726562 1.441406 -8.765625 1.546875 -8.765625 Z M 6.109375 -8.765625 "/></g></g></g><g fill="#ffffff" fill-opacity="1"><g transform="translate(20.565304, 64.822145)"><g><path d="M 7.578125 -0.671875 C 7.703125 -0.585938 7.765625 -0.484375 7.765625 -0.359375 C 7.765625 -0.316406 7.742188 -0.265625 7.703125 -0.203125 C 7.671875 -0.140625 7.625 -0.09375 7.5625 -0.0625 C 7.507812 -0.03125 7.453125 -0.015625 7.390625 -0.015625 C 7.304688 -0.015625 7.234375 -0.03125 7.171875 -0.0625 C 6.941406 -0.195312 6.753906 -0.410156 6.609375 -0.703125 C 6.460938 -1.003906 6.390625 -1.488281 6.390625 -2.15625 C 6.390625 -2.738281 6.226562 -3.144531 5.90625 -3.375 C 5.582031 -3.613281 5.195312 -3.734375 4.75 -3.734375 L 1.96875 -3.734375 L 1.96875 -0.375 C 1.96875 -0.269531 1.929688 -0.179688 1.859375 -0.109375 C 1.796875 -0.0351562 1.710938 0 1.609375 0 C 1.484375 0 1.378906 -0.0351562 1.296875 -0.109375 C 1.210938 -0.179688 1.171875 -0.269531 1.171875 -0.375 L 1.171875 -8.390625 C 1.171875 -8.492188 1.207031 -8.582031 1.28125 -8.65625 C 1.351562 -8.726562 1.441406 -8.765625 1.546875 -8.765625 L 4.9375 -8.765625 C 5.40625 -8.765625 5.828125 -8.660156 6.203125 -8.453125 C 6.578125 -8.242188 6.867188 -7.960938 7.078125 -7.609375 C 7.296875 -7.253906 7.40625 -6.847656 7.40625 -6.390625 C 7.40625 -5.859375 7.265625 -5.390625 6.984375 -4.984375 C 6.710938 -4.578125 6.347656 -4.300781 5.890625 -4.15625 C 6.265625 -4.007812 6.566406 -3.765625 6.796875 -3.421875 C 7.023438 -3.085938 7.144531 -2.679688 7.15625 -2.203125 C 7.164062 -1.679688 7.203125 -1.316406 7.265625 -1.109375 C 7.328125 -0.898438 7.429688 -0.753906 7.578125 -0.671875 Z M 4.96875 -4.4375 C 5.257812 -4.457031 5.53125 -4.550781 5.78125 -4.71875 C 6.03125 -4.882812 6.226562 -5.109375 6.375 -5.390625 C 6.53125 -5.671875 6.609375 -6 6.609375 -6.375 C 6.609375 -6.84375 6.445312 -7.234375 6.125 -7.546875 C 5.800781 -7.859375 5.382812 -8.015625 4.875 -8.015625 L 1.96875 -8.015625 L 1.96875 -4.4375 Z M 4.96875 -4.4375 "/></g></g></g><g fill="#ffffff" fill-opacity="1"><g transform="translate(28.307146, 64.822145)"><g><path d="M 6.140625 -0.734375 C 6.253906 -0.734375 6.34375 -0.695312 6.40625 -0.625 C 6.476562 -0.550781 6.515625 -0.460938 6.515625 -0.359375 C 6.515625 -0.253906 6.476562 -0.164062 6.40625 -0.09375 C 6.34375 -0.03125 6.253906 0 6.140625 0 L 1.546875 0 C 1.441406 0 1.351562 -0.0351562 1.28125 -0.109375 C 1.207031 -0.179688 1.171875 -0.269531 1.171875 -0.375 L 1.171875 -8.390625 C 1.171875 -8.492188 1.207031 -8.582031 1.28125 -8.65625 C 1.351562 -8.726562 1.441406 -8.765625 1.546875 -8.765625 L 6.140625 -8.765625 C 6.253906 -8.765625 6.34375 -8.726562 6.40625 -8.65625 C 6.476562 -8.582031 6.515625 -8.492188 6.515625 -8.390625 C 6.515625 -8.273438 6.476562 -8.179688 6.40625 -8.109375 C 6.34375 -8.046875 6.253906 -8.015625 6.140625 -8.015625 L 1.96875 -8.015625 L 1.96875 -4.875 L 5.578125 -4.875 C 5.691406 -4.875 5.78125 -4.835938 5.84375 -4.765625 C 5.914062 -4.703125 5.953125 -4.613281 5.953125 -4.5 C 5.953125 -4.394531 5.914062 -4.304688 5.84375 -4.234375 C 5.78125 -4.171875 5.691406 -4.140625 5.578125 -4.140625 L 1.96875 -4.140625 L 1.96875 -0.734375 Z M 6.140625 -0.734375 "/></g></g></g><g fill="#ffffff" fill-opacity="1"><g transform="translate(34.773191, 64.822145)"><g><path d="M 6.140625 -0.734375 C 6.253906 -0.734375 6.34375 -0.695312 6.40625 -0.625 C 6.476562 -0.550781 6.515625 -0.460938 6.515625 -0.359375 C 6.515625 -0.253906 6.476562 -0.164062 6.40625 -0.09375 C 6.34375 -0.03125 6.253906 0 6.140625 0 L 1.546875 0 C 1.441406 0 1.351562 -0.0351562 1.28125 -0.109375 C 1.207031 -0.179688 1.171875 -0.269531 1.171875 -0.375 L 1.171875 -8.390625 C 1.171875 -8.492188 1.207031 -8.582031 1.28125 -8.65625 C 1.351562 -8.726562 1.441406 -8.765625 1.546875 -8.765625 L 6.140625 -8.765625 C 6.253906 -8.765625 6.34375 -8.726562 6.40625 -8.65625 C 6.476562 -8.582031 6.515625 -8.492188 6.515625 -8.390625 C 6.515625 -8.273438 6.476562 -8.179688 6.40625 -8.109375 C 6.34375 -8.046875 6.253906 -8.015625 6.140625 -8.015625 L 1.96875 -8.015625 L 1.96875 -4.875 L 5.578125 -4.875 C 5.691406 -4.875 5.78125 -4.835938 5.84375 -4.765625 C 5.914062 -4.703125 5.953125 -4.613281 5.953125 -4.5 C 5.953125 -4.394531 5.914062 -4.304688 5.84375 -4.234375 C 5.78125 -4.171875 5.691406 -4.140625 5.578125 -4.140625 L 1.96875 -4.140625 L 1.96875 -0.734375 Z M 6.140625 -0.734375 "/></g></g></g><g fill="#ffffff" fill-opacity="1"><g transform="translate(41.239235, 64.822145)"><g><path d="M 6.015625 -0.734375 C 6.128906 -0.734375 6.21875 -0.695312 6.28125 -0.625 C 6.351562 -0.5625 6.390625 -0.476562 6.390625 -0.375 C 6.390625 -0.269531 6.351562 -0.179688 6.28125 -0.109375 C 6.21875 -0.0351562 6.128906 0 6.015625 0 L 1.546875 0 C 1.441406 0 1.351562 -0.0351562 1.28125 -0.109375 C 1.207031 -0.179688 1.171875 -0.269531 1.171875 -0.375 L 1.171875 -8.390625 C 1.171875 -8.492188 1.207031 -8.582031 1.28125 -8.65625 C 1.363281 -8.726562 1.460938 -8.765625 1.578125 -8.765625 C 1.679688 -8.765625 1.769531 -8.726562 1.84375 -8.65625 C 1.925781 -8.582031 1.96875 -8.492188 1.96875 -8.390625 L 1.96875 -0.734375 Z M 6.015625 -0.734375 "/></g></g></g><g fill="#ffffff" fill-opacity="1"><g transform="translate(47.255003, 64.822145)"><g><path d="M 7.703125 -0.5 C 7.722656 -0.4375 7.734375 -0.382812 7.734375 -0.34375 C 7.734375 -0.238281 7.695312 -0.148438 7.625 -0.078125 C 7.550781 -0.015625 7.460938 0.015625 7.359375 0.015625 C 7.273438 0.015625 7.203125 -0.00390625 7.140625 -0.046875 C 7.078125 -0.0976562 7.03125 -0.160156 7 -0.234375 L 6.0625 -2.53125 L 1.984375 -2.53125 L 1.0625 -0.234375 C 1 -0.0664062 0.882812 0.015625 0.71875 0.015625 C 0.601562 0.015625 0.515625 -0.0078125 0.453125 -0.0625 C 0.398438 -0.125 0.367188 -0.207031 0.359375 -0.3125 L 0.359375 -0.34375 C 0.359375 -0.394531 0.363281 -0.4375 0.375 -0.46875 L 3.671875 -8.546875 C 3.742188 -8.710938 3.875 -8.796875 4.0625 -8.796875 C 4.144531 -8.796875 4.21875 -8.769531 4.28125 -8.71875 C 4.34375 -8.675781 4.390625 -8.617188 4.421875 -8.546875 Z M 2.28125 -3.265625 L 5.75 -3.265625 L 4 -7.546875 Z M 2.28125 -3.265625 "/></g></g></g><g fill="#ffffff" fill-opacity="1"><g transform="translate(54.709168, 64.822145)"><g><path d="M 7.578125 -8.765625 C 7.691406 -8.765625 7.78125 -8.726562 7.84375 -8.65625 C 7.90625 -8.59375 7.9375 -8.507812 7.9375 -8.40625 L 7.9375 -0.40625 C 7.9375 -0.28125 7.894531 -0.179688 7.8125 -0.109375 C 7.738281 -0.0351562 7.648438 0 7.546875 0 C 7.484375 0 7.425781 -0.0078125 7.375 -0.03125 C 7.320312 -0.0625 7.28125 -0.09375 7.25 -0.125 L 1.875 -7.359375 L 1.875 -0.34375 C 1.875 -0.25 1.835938 -0.164062 1.765625 -0.09375 C 1.703125 -0.03125 1.625 0 1.53125 0 C 1.425781 0 1.335938 -0.03125 1.265625 -0.09375 C 1.203125 -0.164062 1.171875 -0.25 1.171875 -0.34375 L 1.171875 -8.390625 C 1.171875 -8.503906 1.207031 -8.59375 1.28125 -8.65625 C 1.351562 -8.726562 1.441406 -8.765625 1.546875 -8.765625 C 1.671875 -8.765625 1.769531 -8.71875 1.84375 -8.625 L 7.234375 -1.359375 L 7.234375 -8.40625 C 7.234375 -8.507812 7.265625 -8.59375 7.328125 -8.65625 C 7.398438 -8.726562 7.484375 -8.765625 7.578125 -8.765625 Z M 7.578125 -8.765625 "/></g></g></g><g fill="#ffffff" fill-opacity="1"><g transform="translate(63.176468, 64.822145)"><g><path d="M 7.578125 -8.109375 C 7.703125 -8.035156 7.765625 -7.929688 7.765625 -7.796875 C 7.765625 -7.722656 7.734375 -7.640625 7.671875 -7.546875 C 7.597656 -7.453125 7.503906 -7.40625 7.390625 -7.40625 C 7.316406 -7.40625 7.25 -7.425781 7.1875 -7.46875 C 6.519531 -7.914062 5.789062 -8.140625 5 -8.140625 C 4.320312 -8.140625 3.707031 -7.976562 3.15625 -7.65625 C 2.613281 -7.34375 2.1875 -6.898438 1.875 -6.328125 C 1.5625 -5.753906 1.40625 -5.101562 1.40625 -4.375 C 1.40625 -3.632812 1.5625 -2.976562 1.875 -2.40625 C 2.195312 -1.832031 2.628906 -1.390625 3.171875 -1.078125 C 3.722656 -0.765625 4.332031 -0.609375 5 -0.609375 C 5.789062 -0.609375 6.515625 -0.828125 7.171875 -1.265625 C 7.234375 -1.304688 7.304688 -1.328125 7.390625 -1.328125 C 7.503906 -1.328125 7.597656 -1.273438 7.671875 -1.171875 C 7.734375 -1.109375 7.765625 -1.03125 7.765625 -0.9375 C 7.765625 -0.800781 7.703125 -0.703125 7.578125 -0.640625 C 7.253906 -0.421875 6.851562 -0.238281 6.375 -0.09375 C 5.90625 0.0507812 5.445312 0.125 5 0.125 C 4.207031 0.125 3.472656 -0.0625 2.796875 -0.4375 C 2.128906 -0.820312 1.59375 -1.351562 1.1875 -2.03125 C 0.789062 -2.71875 0.59375 -3.5 0.59375 -4.375 C 0.59375 -5.21875 0.789062 -5.984375 1.1875 -6.671875 C 1.582031 -7.359375 2.113281 -7.894531 2.78125 -8.28125 C 3.445312 -8.675781 4.1875 -8.875 5 -8.875 C 5.457031 -8.875 5.910156 -8.804688 6.359375 -8.671875 C 6.804688 -8.535156 7.210938 -8.347656 7.578125 -8.109375 Z M 7.578125 -8.109375 "/></g></g></g><g fill="#ffffff" fill-opacity="1"><g transform="translate(70.705674, 64.822145)"><g><path d="M 6.140625 -0.734375 C 6.253906 -0.734375 6.34375 -0.695312 6.40625 -0.625 C 6.476562 -0.550781 6.515625 -0.460938 6.515625 -0.359375 C 6.515625 -0.253906 6.476562 -0.164062 6.40625 -0.09375 C 6.34375 -0.03125 6.253906 0 6.140625 0 L 1.546875 0 C 1.441406 0 1.351562 -0.0351562 1.28125 -0.109375 C 1.207031 -0.179688 1.171875 -0.269531 1.171875 -0.375 L 1.171875 -8.390625 C 1.171875 -8.492188 1.207031 -8.582031 1.28125 -8.65625 C 1.351562 -8.726562 1.441406 -8.765625 1.546875 -8.765625 L 6.140625 -8.765625 C 6.253906 -8.765625 6.34375 -8.726562 6.40625 -8.65625 C 6.476562 -8.582031 6.515625 -8.492188 6.515625 -8.390625 C 6.515625 -8.273438 6.476562 -8.179688 6.40625 -8.109375 C 6.34375 -8.046875 6.253906 -8.015625 6.140625 -8.015625 L 1.96875 -8.015625 L 1.96875 -4.875 L 5.578125 -4.875 C 5.691406 -4.875 5.78125 -4.835938 5.84375 -4.765625 C 5.914062 -4.703125 5.953125 -4.613281 5.953125 -4.5 C 5.953125 -4.394531 5.914062 -4.304688 5.84375 -4.234375 C 5.78125 -4.171875 5.691406 -4.140625 5.578125 -4.140625 L 1.96875 -4.140625 L 1.96875 -0.734375 Z M 6.140625 -0.734375 "/></g></g></g><g fill="#ffffff" fill-opacity="1"><g transform="translate(77.171716, 64.822145)"><g/></g></g><g fill="#ffffff" fill-opacity="1"><g transform="translate(79.947965, 64.822145)"><g><path d="M 7.578125 -8.109375 C 7.703125 -8.035156 7.765625 -7.929688 7.765625 -7.796875 C 7.765625 -7.722656 7.734375 -7.640625 7.671875 -7.546875 C 7.597656 -7.453125 7.503906 -7.40625 7.390625 -7.40625 C 7.316406 -7.40625 7.25 -7.425781 7.1875 -7.46875 C 6.519531 -7.914062 5.789062 -8.140625 5 -8.140625 C 4.320312 -8.140625 3.707031 -7.976562 3.15625 -7.65625 C 2.613281 -7.34375 2.1875 -6.898438 1.875 -6.328125 C 1.5625 -5.753906 1.40625 -5.101562 1.40625 -4.375 C 1.40625 -3.632812 1.5625 -2.976562 1.875 -2.40625 C 2.195312 -1.832031 2.628906 -1.390625 3.171875 -1.078125 C 3.722656 -0.765625 4.332031 -0.609375 5 -0.609375 C 5.789062 -0.609375 6.515625 -0.828125 7.171875 -1.265625 C 7.234375 -1.304688 7.304688 -1.328125 7.390625 -1.328125 C 7.503906 -1.328125 7.597656 -1.273438 7.671875 -1.171875 C 7.734375 -1.109375 7.765625 -1.03125 7.765625 -0.9375 C 7.765625 -0.800781 7.703125 -0.703125 7.578125 -0.640625 C 7.253906 -0.421875 6.851562 -0.238281 6.375 -0.09375 C 5.90625 0.0507812 5.445312 0.125 5 0.125 C 4.207031 0.125 3.472656 -0.0625 2.796875 -0.4375 C 2.128906 -0.820312 1.59375 -1.351562 1.1875 -2.03125 C 0.789062 -2.71875 0.59375 -3.5 0.59375 -4.375 C 0.59375 -5.21875 0.789062 -5.984375 1.1875 -6.671875 C 1.582031 -7.359375 2.113281 -7.894531 2.78125 -8.28125 C 3.445312 -8.675781 4.1875 -8.875 5 -8.875 C 5.457031 -8.875 5.910156 -8.804688 6.359375 -8.671875 C 6.804688 -8.535156 7.210938 -8.347656 7.578125 -8.109375 Z M 7.578125 -8.109375 "/></g></g></g><g fill="#ffffff" fill-opacity="1"><g transform="translate(87.477171, 64.822145)"><g><path d="M 6.015625 -0.734375 C 6.128906 -0.734375 6.21875 -0.695312 6.28125 -0.625 C 6.351562 -0.5625 6.390625 -0.476562 6.390625 -0.375 C 6.390625 -0.269531 6.351562 -0.179688 6.28125 -0.109375 C 6.21875 -0.0351562 6.128906 0 6.015625 0 L 1.546875 0 C 1.441406 0 1.351562 -0.0351562 1.28125 -0.109375 C 1.207031 -0.179688 1.171875 -0.269531 1.171875 -0.375 L 1.171875 -8.390625 C 1.171875 -8.492188 1.207031 -8.582031 1.28125 -8.65625 C 1.363281 -8.726562 1.460938 -8.765625 1.578125 -8.765625 C 1.679688 -8.765625 1.769531 -8.726562 1.84375 -8.65625 C 1.925781 -8.582031 1.96875 -8.492188 1.96875 -8.390625 L 1.96875 -0.734375 Z M 6.015625 -0.734375 "/></g></g></g><g fill="#ffffff" fill-opacity="1"><g transform="translate(93.492936, 64.822145)"><g><path d="M 8.984375 -4.375 C 8.984375 -3.519531 8.800781 -2.75 8.4375 -2.0625 C 8.082031 -1.375 7.585938 -0.835938 6.953125 -0.453125 C 6.316406 -0.0664062 5.597656 0.125 4.796875 0.125 C 3.984375 0.125 3.257812 -0.0664062 2.625 -0.453125 C 1.988281 -0.835938 1.488281 -1.375 1.125 -2.0625 C 0.769531 -2.75 0.59375 -3.519531 0.59375 -4.375 C 0.59375 -5.25 0.769531 -6.023438 1.125 -6.703125 C 1.488281 -7.390625 1.988281 -7.925781 2.625 -8.3125 C 3.257812 -8.695312 3.984375 -8.890625 4.796875 -8.890625 C 5.597656 -8.890625 6.316406 -8.695312 6.953125 -8.3125 C 7.585938 -7.925781 8.082031 -7.390625 8.4375 -6.703125 C 8.800781 -6.023438 8.984375 -5.25 8.984375 -4.375 Z M 8.1875 -4.375 C 8.1875 -5.101562 8.039062 -5.753906 7.75 -6.328125 C 7.46875 -6.898438 7.066406 -7.34375 6.546875 -7.65625 C 6.035156 -7.976562 5.453125 -8.140625 4.796875 -8.140625 C 4.140625 -8.140625 3.550781 -7.976562 3.03125 -7.65625 C 2.519531 -7.34375 2.117188 -6.898438 1.828125 -6.328125 C 1.546875 -5.753906 1.40625 -5.101562 1.40625 -4.375 C 1.40625 -3.65625 1.546875 -3.007812 1.828125 -2.4375 C 2.117188 -1.863281 2.519531 -1.414062 3.03125 -1.09375 C 3.550781 -0.78125 4.140625 -0.625 4.796875 -0.625 C 5.453125 -0.625 6.035156 -0.78125 6.546875 -1.09375 C 7.066406 -1.414062 7.46875 -1.863281 7.75 -2.4375 C 8.039062 -3.007812 8.1875 -3.65625 8.1875 -4.375 Z M 8.1875 -4.375 "/></g></g></g><g fill="#ffffff" fill-opacity="1"><g transform="translate(102.435529, 64.822145)"><g><path d="M 7.375 -8.765625 C 7.476562 -8.765625 7.566406 -8.726562 7.640625 -8.65625 C 7.710938 -8.582031 7.75 -8.492188 7.75 -8.390625 L 7.75 -3.203125 C 7.75 -2.597656 7.601562 -2.039062 7.3125 -1.53125 C 7.019531 -1.019531 6.625 -0.617188 6.125 -0.328125 C 5.625 -0.0351562 5.070312 0.109375 4.46875 0.109375 C 3.851562 0.109375 3.296875 -0.0351562 2.796875 -0.328125 C 2.296875 -0.617188 1.898438 -1.019531 1.609375 -1.53125 C 1.316406 -2.039062 1.171875 -2.597656 1.171875 -3.203125 L 1.171875 -8.390625 C 1.171875 -8.492188 1.207031 -8.582031 1.28125 -8.65625 C 1.351562 -8.726562 1.453125 -8.765625 1.578125 -8.765625 C 1.679688 -8.765625 1.769531 -8.726562 1.84375 -8.65625 C 1.914062 -8.582031 1.953125 -8.492188 1.953125 -8.390625 L 1.953125 -3.203125 C 1.953125 -2.734375 2.0625 -2.300781 2.28125 -1.90625 C 2.507812 -1.519531 2.816406 -1.210938 3.203125 -0.984375 C 3.597656 -0.753906 4.019531 -0.640625 4.46875 -0.640625 C 4.925781 -0.640625 5.347656 -0.753906 5.734375 -0.984375 C 6.128906 -1.210938 6.441406 -1.519531 6.671875 -1.90625 C 6.898438 -2.300781 7.015625 -2.734375 7.015625 -3.203125 L 7.015625 -8.390625 C 7.015625 -8.492188 7.046875 -8.582031 7.109375 -8.65625 C 7.171875 -8.726562 7.257812 -8.765625 7.375 -8.765625 Z M 7.375 -8.765625 "/></g></g></g><g fill="#ffffff" fill-opacity="1"><g transform="translate(110.715201, 64.822145)"><g><path d="M 4.75 -8.765625 C 5.539062 -8.765625 6.207031 -8.566406 6.75 -8.171875 C 7.300781 -7.773438 7.710938 -7.242188 7.984375 -6.578125 C 8.253906 -5.910156 8.390625 -5.175781 8.390625 -4.375 C 8.390625 -3.550781 8.253906 -2.804688 7.984375 -2.140625 C 7.710938 -1.484375 7.300781 -0.960938 6.75 -0.578125 C 6.207031 -0.191406 5.539062 0 4.75 0 L 1.546875 0 C 1.441406 0 1.351562 -0.0351562 1.28125 -0.109375 C 1.207031 -0.179688 1.171875 -0.269531 1.171875 -0.375 L 1.171875 -8.390625 C 1.171875 -8.492188 1.207031 -8.582031 1.28125 -8.65625 C 1.351562 -8.726562 1.441406 -8.765625 1.546875 -8.765625 Z M 4.625 -0.734375 C 5.625 -0.734375 6.367188 -1.066406 6.859375 -1.734375 C 7.347656 -2.410156 7.59375 -3.289062 7.59375 -4.375 C 7.59375 -5.050781 7.488281 -5.660156 7.28125 -6.203125 C 7.070312 -6.753906 6.742188 -7.191406 6.296875 -7.515625 C 5.847656 -7.847656 5.289062 -8.015625 4.625 -8.015625 L 1.96875 -8.015625 L 1.96875 -0.734375 Z M 4.625 -0.734375 "/></g></g></g><g fill="#ffffff" fill-opacity="1"><g transform="translate(119.069928, 64.822145)"><g/></g></g><g fill="#ffffff" fill-opacity="1"><g transform="translate(121.846177, 64.822145)"><g><path d="M 3.546875 0.125 C 2.941406 0.125 2.40625 0.0234375 1.9375 -0.171875 C 1.476562 -0.367188 1.03125 -0.679688 0.59375 -1.109375 C 0.5 -1.191406 0.453125 -1.296875 0.453125 -1.421875 C 0.453125 -1.515625 0.488281 -1.601562 0.5625 -1.6875 C 0.644531 -1.769531 0.738281 -1.8125 0.84375 -1.8125 C 0.9375 -1.8125 1.023438 -1.769531 1.109375 -1.6875 C 1.765625 -0.96875 2.578125 -0.609375 3.546875 -0.609375 C 4.148438 -0.609375 4.648438 -0.75 5.046875 -1.03125 C 5.441406 -1.320312 5.640625 -1.695312 5.640625 -2.15625 C 5.640625 -2.507812 5.539062 -2.804688 5.34375 -3.046875 C 5.15625 -3.285156 4.898438 -3.476562 4.578125 -3.625 C 4.265625 -3.78125 3.859375 -3.9375 3.359375 -4.09375 C 2.828125 -4.25 2.378906 -4.421875 2.015625 -4.609375 C 1.660156 -4.804688 1.367188 -5.066406 1.140625 -5.390625 C 0.910156 -5.710938 0.796875 -6.117188 0.796875 -6.609375 C 0.796875 -7.046875 0.914062 -7.4375 1.15625 -7.78125 C 1.394531 -8.125 1.726562 -8.394531 2.15625 -8.59375 C 2.582031 -8.789062 3.078125 -8.890625 3.640625 -8.890625 C 4.148438 -8.890625 4.628906 -8.800781 5.078125 -8.625 C 5.523438 -8.457031 5.878906 -8.210938 6.140625 -7.890625 C 6.265625 -7.753906 6.328125 -7.632812 6.328125 -7.53125 C 6.328125 -7.4375 6.285156 -7.347656 6.203125 -7.265625 C 6.117188 -7.191406 6.03125 -7.15625 5.9375 -7.15625 C 5.851562 -7.15625 5.78125 -7.1875 5.71875 -7.25 C 5.488281 -7.507812 5.1875 -7.722656 4.8125 -7.890625 C 4.4375 -8.054688 4.046875 -8.140625 3.640625 -8.140625 C 3.035156 -8.140625 2.539062 -8.003906 2.15625 -7.734375 C 1.769531 -7.460938 1.578125 -7.097656 1.578125 -6.640625 C 1.578125 -6.148438 1.757812 -5.773438 2.125 -5.515625 C 2.488281 -5.253906 3.015625 -5.019531 3.703125 -4.8125 C 4.296875 -4.632812 4.78125 -4.453125 5.15625 -4.265625 C 5.53125 -4.085938 5.835938 -3.828125 6.078125 -3.484375 C 6.316406 -3.148438 6.4375 -2.707031 6.4375 -2.15625 C 6.4375 -1.726562 6.3125 -1.335938 6.0625 -0.984375 C 5.8125 -0.640625 5.46875 -0.367188 5.03125 -0.171875 C 4.59375 0.0234375 4.097656 0.125 3.546875 0.125 Z M 3.546875 0.125 "/></g></g></g><g fill="#ffffff" fill-opacity="1"><g transform="translate(128.237175, 64.822145)"><g><path d="M 4.515625 -8.765625 C 4.972656 -8.765625 5.382812 -8.65625 5.75 -8.4375 C 6.125 -8.226562 6.410156 -7.929688 6.609375 -7.546875 C 6.816406 -7.171875 6.921875 -6.742188 6.921875 -6.265625 C 6.921875 -5.796875 6.816406 -5.363281 6.609375 -4.96875 C 6.410156 -4.570312 6.125 -4.257812 5.75 -4.03125 C 5.382812 -3.8125 4.972656 -3.703125 4.515625 -3.703125 L 1.921875 -3.703125 L 1.921875 -0.375 C 1.921875 -0.269531 1.882812 -0.179688 1.8125 -0.109375 C 1.75 -0.0351562 1.660156 0 1.546875 0 C 1.441406 0 1.351562 -0.0351562 1.28125 -0.109375 C 1.207031 -0.179688 1.171875 -0.269531 1.171875 -0.375 L 1.171875 -8.390625 C 1.171875 -8.492188 1.207031 -8.582031 1.28125 -8.65625 C 1.351562 -8.726562 1.441406 -8.765625 1.546875 -8.765625 Z M 4.515625 -4.4375 C 5.003906 -4.4375 5.394531 -4.609375 5.6875 -4.953125 C 5.988281 -5.304688 6.140625 -5.742188 6.140625 -6.265625 C 6.140625 -6.785156 5.988281 -7.207031 5.6875 -7.53125 C 5.394531 -7.851562 5.003906 -8.015625 4.515625 -8.015625 L 1.921875 -8.015625 L 1.921875 -4.4375 Z M 4.515625 -4.4375 "/></g></g></g><g fill="#ffffff" fill-opacity="1"><g transform="translate(135.053438, 64.822145)"><g><path d="M 6.140625 -0.734375 C 6.253906 -0.734375 6.34375 -0.695312 6.40625 -0.625 C 6.476562 -0.550781 6.515625 -0.460938 6.515625 -0.359375 C 6.515625 -0.253906 6.476562 -0.164062 6.40625 -0.09375 C 6.34375 -0.03125 6.253906 0 6.140625 0 L 1.546875 0 C 1.441406 0 1.351562 -0.0351562 1.28125 -0.109375 C 1.207031 -0.179688 1.171875 -0.269531 1.171875 -0.375 L 1.171875 -8.390625 C 1.171875 -8.492188 1.207031 -8.582031 1.28125 -8.65625 C 1.351562 -8.726562 1.441406 -8.765625 1.546875 -8.765625 L 6.140625 -8.765625 C 6.253906 -8.765625 6.34375 -8.726562 6.40625 -8.65625 C 6.476562 -8.582031 6.515625 -8.492188 6.515625 -8.390625 C 6.515625 -8.273438 6.476562 -8.179688 6.40625 -8.109375 C 6.34375 -8.046875 6.253906 -8.015625 6.140625 -8.015625 L 1.96875 -8.015625 L 1.96875 -4.875 L 5.578125 -4.875 C 5.691406 -4.875 5.78125 -4.835938 5.84375 -4.765625 C 5.914062 -4.703125 5.953125 -4.613281 5.953125 -4.5 C 5.953125 -4.394531 5.914062 -4.304688 5.84375 -4.234375 C 5.78125 -4.171875 5.691406 -4.140625 5.578125 -4.140625 L 1.96875 -4.140625 L 1.96875 -0.734375 Z M 6.140625 -0.734375 "/></g></g></g><g fill="#ffffff" fill-opacity="1"><g transform="translate(141.51948, 64.822145)"><g><path d="M 7.578125 -8.109375 C 7.703125 -8.035156 7.765625 -7.929688 7.765625 -7.796875 C 7.765625 -7.722656 7.734375 -7.640625 7.671875 -7.546875 C 7.597656 -7.453125 7.503906 -7.40625 7.390625 -7.40625 C 7.316406 -7.40625 7.25 -7.425781 7.1875 -7.46875 C 6.519531 -7.914062 5.789062 -8.140625 5 -8.140625 C 4.320312 -8.140625 3.707031 -7.976562 3.15625 -7.65625 C 2.613281 -7.34375 2.1875 -6.898438 1.875 -6.328125 C 1.5625 -5.753906 1.40625 -5.101562 1.40625 -4.375 C 1.40625 -3.632812 1.5625 -2.976562 1.875 -2.40625 C 2.195312 -1.832031 2.628906 -1.390625 3.171875 -1.078125 C 3.722656 -0.765625 4.332031 -0.609375 5 -0.609375 C 5.789062 -0.609375 6.515625 -0.828125 7.171875 -1.265625 C 7.234375 -1.304688 7.304688 -1.328125 7.390625 -1.328125 C 7.503906 -1.328125 7.597656 -1.273438 7.671875 -1.171875 C 7.734375 -1.109375 7.765625 -1.03125 7.765625 -0.9375 C 7.765625 -0.800781 7.703125 -0.703125 7.578125 -0.640625 C 7.253906 -0.421875 6.851562 -0.238281 6.375 -0.09375 C 5.90625 0.0507812 5.445312 0.125 5 0.125 C 4.207031 0.125 3.472656 -0.0625 2.796875 -0.4375 C 2.128906 -0.820312 1.59375 -1.351562 1.1875 -2.03125 C 0.789062 -2.71875 0.59375 -3.5 0.59375 -4.375 C 0.59375 -5.21875 0.789062 -5.984375 1.1875 -6.671875 C 1.582031 -7.359375 2.113281 -7.894531 2.78125 -8.28125 C 3.445312 -8.675781 4.1875 -8.875 5 -8.875 C 5.457031 -8.875 5.910156 -8.804688 6.359375 -8.671875 C 6.804688 -8.535156 7.210938 -8.347656 7.578125 -8.109375 Z M 7.578125 -8.109375 "/></g></g></g><g fill="#ffffff" fill-opacity="1"><g transform="translate(149.048686, 64.822145)"><g><path d="M 1.96875 -0.390625 C 1.957031 -0.273438 1.914062 -0.179688 1.84375 -0.109375 C 1.769531 -0.0351562 1.675781 0 1.5625 0 C 1.445312 0 1.351562 -0.0351562 1.28125 -0.109375 C 1.207031 -0.179688 1.171875 -0.273438 1.171875 -0.390625 L 1.171875 -8.375 C 1.171875 -8.488281 1.207031 -8.582031 1.28125 -8.65625 C 1.363281 -8.726562 1.460938 -8.765625 1.578125 -8.765625 C 1.679688 -8.765625 1.769531 -8.722656 1.84375 -8.640625 C 1.925781 -8.566406 1.96875 -8.476562 1.96875 -8.375 Z M 1.96875 -0.390625 "/></g></g></g><g fill="#ffffff" fill-opacity="1"><g transform="translate(151.537258, 64.822145)"><g><path d="M 7.703125 -0.5 C 7.722656 -0.4375 7.734375 -0.382812 7.734375 -0.34375 C 7.734375 -0.238281 7.695312 -0.148438 7.625 -0.078125 C 7.550781 -0.015625 7.460938 0.015625 7.359375 0.015625 C 7.273438 0.015625 7.203125 -0.00390625 7.140625 -0.046875 C 7.078125 -0.0976562 7.03125 -0.160156 7 -0.234375 L 6.0625 -2.53125 L 1.984375 -2.53125 L 1.0625 -0.234375 C 1 -0.0664062 0.882812 0.015625 0.71875 0.015625 C 0.601562 0.015625 0.515625 -0.0078125 0.453125 -0.0625 C 0.398438 -0.125 0.367188 -0.207031 0.359375 -0.3125 L 0.359375 -0.34375 C 0.359375 -0.394531 0.363281 -0.4375 0.375 -0.46875 L 3.671875 -8.546875 C 3.742188 -8.710938 3.875 -8.796875 4.0625 -8.796875 C 4.144531 -8.796875 4.21875 -8.769531 4.28125 -8.71875 C 4.34375 -8.675781 4.390625 -8.617188 4.421875 -8.546875 Z M 2.28125 -3.265625 L 5.75 -3.265625 L 4 -7.546875 Z M 2.28125 -3.265625 "/></g></g></g><g fill="#ffffff" fill-opacity="1"><g transform="translate(158.99142, 64.822145)"><g><path d="M 6.015625 -0.734375 C 6.128906 -0.734375 6.21875 -0.695312 6.28125 -0.625 C 6.351562 -0.5625 6.390625 -0.476562 6.390625 -0.375 C 6.390625 -0.269531 6.351562 -0.179688 6.28125 -0.109375 C 6.21875 -0.0351562 6.128906 0 6.015625 0 L 1.546875 0 C 1.441406 0 1.351562 -0.0351562 1.28125 -0.109375 C 1.207031 -0.179688 1.171875 -0.269531 1.171875 -0.375 L 1.171875 -8.390625 C 1.171875 -8.492188 1.207031 -8.582031 1.28125 -8.65625 C 1.363281 -8.726562 1.460938 -8.765625 1.578125 -8.765625 C 1.679688 -8.765625 1.769531 -8.726562 1.84375 -8.65625 C 1.925781 -8.582031 1.96875 -8.492188 1.96875 -8.390625 L 1.96875 -0.734375 Z M 6.015625 -0.734375 "/></g></g></g><g fill="#ffffff" fill-opacity="1"><g transform="translate(165.007185, 64.822145)"><g><path d="M 1.96875 -0.390625 C 1.957031 -0.273438 1.914062 -0.179688 1.84375 -0.109375 C 1.769531 -0.0351562 1.675781 0 1.5625 0 C 1.445312 0 1.351562 -0.0351562 1.28125 -0.109375 C 1.207031 -0.179688 1.171875 -0.273438 1.171875 -0.390625 L 1.171875 -8.375 C 1.171875 -8.488281 1.207031 -8.582031 1.28125 -8.65625 C 1.363281 -8.726562 1.460938 -8.765625 1.578125 -8.765625 C 1.679688 -8.765625 1.769531 -8.722656 1.84375 -8.640625 C 1.925781 -8.566406 1.96875 -8.476562 1.96875 -8.375 Z M 1.96875 -0.390625 "/></g></g></g><g fill="#ffffff" fill-opacity="1"><g transform="translate(167.495757, 64.822145)"><g><path d="M 3.546875 0.125 C 2.941406 0.125 2.40625 0.0234375 1.9375 -0.171875 C 1.476562 -0.367188 1.03125 -0.679688 0.59375 -1.109375 C 0.5 -1.191406 0.453125 -1.296875 0.453125 -1.421875 C 0.453125 -1.515625 0.488281 -1.601562 0.5625 -1.6875 C 0.644531 -1.769531 0.738281 -1.8125 0.84375 -1.8125 C 0.9375 -1.8125 1.023438 -1.769531 1.109375 -1.6875 C 1.765625 -0.96875 2.578125 -0.609375 3.546875 -0.609375 C 4.148438 -0.609375 4.648438 -0.75 5.046875 -1.03125 C 5.441406 -1.320312 5.640625 -1.695312 5.640625 -2.15625 C 5.640625 -2.507812 5.539062 -2.804688 5.34375 -3.046875 C 5.15625 -3.285156 4.898438 -3.476562 4.578125 -3.625 C 4.265625 -3.78125 3.859375 -3.9375 3.359375 -4.09375 C 2.828125 -4.25 2.378906 -4.421875 2.015625 -4.609375 C 1.660156 -4.804688 1.367188 -5.066406 1.140625 -5.390625 C 0.910156 -5.710938 0.796875 -6.117188 0.796875 -6.609375 C 0.796875 -7.046875 0.914062 -7.4375 1.15625 -7.78125 C 1.394531 -8.125 1.726562 -8.394531 2.15625 -8.59375 C 2.582031 -8.789062 3.078125 -8.890625 3.640625 -8.890625 C 4.148438 -8.890625 4.628906 -8.800781 5.078125 -8.625 C 5.523438 -8.457031 5.878906 -8.210938 6.140625 -7.890625 C 6.265625 -7.753906 6.328125 -7.632812 6.328125 -7.53125 C 6.328125 -7.4375 6.285156 -7.347656 6.203125 -7.265625 C 6.117188 -7.191406 6.03125 -7.15625 5.9375 -7.15625 C 5.851562 -7.15625 5.78125 -7.1875 5.71875 -7.25 C 5.488281 -7.507812 5.1875 -7.722656 4.8125 -7.890625 C 4.4375 -8.054688 4.046875 -8.140625 3.640625 -8.140625 C 3.035156 -8.140625 2.539062 -8.003906 2.15625 -7.734375 C 1.769531 -7.460938 1.578125 -7.097656 1.578125 -6.640625 C 1.578125 -6.148438 1.757812 -5.773438 2.125 -5.515625 C 2.488281 -5.253906 3.015625 -5.019531 3.703125 -4.8125 C 4.296875 -4.632812 4.78125 -4.453125 5.15625 -4.265625 C 5.53125 -4.085938 5.835938 -3.828125 6.078125 -3.484375 C 6.316406 -3.148438 6.4375 -2.707031 6.4375 -2.15625 C 6.4375 -1.726562 6.3125 -1.335938 6.0625 -0.984375 C 5.8125 -0.640625 5.46875 -0.367188 5.03125 -0.171875 C 4.59375 0.0234375 4.097656 0.125 3.546875 0.125 Z M 3.546875 0.125 "/></g></g></g><g fill="#ffffff" fill-opacity="1"><g transform="translate(173.886755, 64.822145)"><g><path d="M 6.765625 -8.765625 C 6.867188 -8.765625 6.957031 -8.726562 7.03125 -8.65625 C 7.101562 -8.59375 7.140625 -8.503906 7.140625 -8.390625 C 7.140625 -8.285156 7.101562 -8.203125 7.03125 -8.140625 C 6.957031 -8.078125 6.867188 -8.046875 6.765625 -8.046875 L 4.171875 -8.046875 L 4.171875 -0.375 C 4.171875 -0.269531 4.128906 -0.179688 4.046875 -0.109375 C 3.972656 -0.0351562 3.882812 0 3.78125 0 C 3.664062 0 3.570312 -0.0351562 3.5 -0.109375 C 3.425781 -0.179688 3.390625 -0.269531 3.390625 -0.375 L 3.390625 -8.046875 L 0.796875 -8.046875 C 0.691406 -8.046875 0.601562 -8.078125 0.53125 -8.140625 C 0.457031 -8.210938 0.421875 -8.300781 0.421875 -8.40625 C 0.421875 -8.507812 0.457031 -8.59375 0.53125 -8.65625 C 0.601562 -8.726562 0.691406 -8.765625 0.796875 -8.765625 Z M 6.765625 -8.765625 "/></g></g></g><g fill="#ffffff" fill-opacity="1"><g transform="translate(17.240472, 39.879492)"><g><path d="M 19.875 0 L 16.9375 -10.5 L 16.796875 -10.5 L 13.828125 0 L 6.890625 0 L 0 -18.875 L 7.640625 -18.875 L 10.5 -7.71875 L 10.75 -7.71875 L 13.71875 -18.875 L 20.796875 -18.875 L 23.65625 -7.71875 L 23.90625 -7.71875 L 26.796875 -18.875 L 33.734375 -18.875 L 26.796875 0 Z M 19.875 0 "/></g></g></g><g fill="#ffffff" fill-opacity="1"><g transform="translate(47.319439, 39.879492)"><g><path d="M 11.90625 -19.296875 C 15.351562 -19.296875 17.988281 -18.484375 19.8125 -16.859375 C 21.632812 -15.242188 22.546875 -12.769531 22.546875 -9.4375 L 22.546875 -8.21875 L 8.390625 -8.21875 C 8.390625 -6.863281 8.691406 -5.835938 9.296875 -5.140625 C 9.910156 -4.453125 10.875 -4.109375 12.1875 -4.109375 C 13.375 -4.109375 14.25 -4.359375 14.8125 -4.859375 C 15.375 -5.359375 15.65625 -6.023438 15.65625 -6.859375 L 22.546875 -6.859375 C 22.546875 -4.578125 21.675781 -2.789062 19.9375 -1.5 C 18.195312 -0.21875 15.660156 0.421875 12.328125 0.421875 C 8.828125 0.421875 6.109375 -0.390625 4.171875 -2.015625 C 2.242188 -3.648438 1.28125 -6.125 1.28125 -9.4375 C 1.28125 -12.675781 2.222656 -15.128906 4.109375 -16.796875 C 5.992188 -18.460938 8.59375 -19.296875 11.90625 -19.296875 Z M 12.1875 -14.765625 C 9.945312 -14.765625 8.695312 -13.703125 8.4375 -11.578125 L 15.359375 -11.578125 C 15.359375 -12.554688 15.078125 -13.332031 14.515625 -13.90625 C 13.960938 -14.476562 13.1875 -14.765625 12.1875 -14.765625 Z M 12.1875 -14.765625 "/></g></g></g><g fill="#ffffff" fill-opacity="1"><g transform="translate(67.502592, 39.879492)"><g><path d="M 2.390625 -21.078125 L 2.390625 -25.90625 L 9.5 -25.90625 L 9.5 -21.078125 Z M 2.390625 0 L 2.390625 -18.875 L 9.5 -18.875 L 9.5 0 Z M 2.390625 0 "/></g></g></g><g fill="#ffffff" fill-opacity="1"><g transform="translate(75.753609, 39.879492)"><g><path d="M 15.859375 0 L 15.265625 -2.6875 C 13.878906 -0.613281 11.875 0.421875 9.25 0.421875 C 6.707031 0.421875 4.742188 -0.410156 3.359375 -2.078125 C 1.972656 -3.742188 1.28125 -6.207031 1.28125 -9.46875 C 1.28125 -12.707031 1.972656 -15.15625 3.359375 -16.8125 C 4.742188 -18.46875 6.707031 -19.296875 9.25 -19.296875 C 11.414062 -19.296875 13.179688 -18.566406 14.546875 -17.109375 L 14.546875 -25.90625 L 21.65625 -25.90625 L 21.65625 0 Z M 11.46875 -14.046875 C 9.414062 -14.046875 8.390625 -12.816406 8.390625 -10.359375 L 8.390625 -8.46875 C 8.390625 -6.039062 9.414062 -4.828125 11.46875 -4.828125 C 12.519531 -4.828125 13.304688 -5.195312 13.828125 -5.9375 C 14.347656 -6.675781 14.609375 -7.640625 14.609375 -8.828125 L 14.609375 -10 C 14.609375 -11.195312 14.347656 -12.171875 13.828125 -12.921875 C 13.304688 -13.671875 12.519531 -14.046875 11.46875 -14.046875 Z M 11.46875 -14.046875 "/></g></g></g><g fill="#ffffff" fill-opacity="1"><g transform="translate(95.936762, 39.879492)"><g><path d="M 9.25 -16.90625 C 10.019531 -17.664062 10.914062 -18.253906 11.9375 -18.671875 C 12.957031 -19.085938 14.03125 -19.296875 15.15625 -19.296875 C 17.34375 -19.296875 18.984375 -18.6875 20.078125 -17.46875 C 21.171875 -16.257812 21.71875 -14.507812 21.71875 -12.21875 L 21.71875 0 L 14.609375 0 L 14.609375 -11.359375 C 14.609375 -12.171875 14.398438 -12.820312 13.984375 -13.3125 C 13.566406 -13.800781 12.976562 -14.046875 12.21875 -14.046875 C 11.34375 -14.046875 10.628906 -13.757812 10.078125 -13.1875 C 9.523438 -12.613281 9.25 -11.910156 9.25 -11.078125 L 9.25 0 L 2.140625 0 L 2.140625 -25.90625 L 9.25 -25.90625 Z M 9.25 -16.90625 "/></g></g></g><g fill="#ffffff" fill-opacity="1"><g transform="translate(116.119909, 39.879492)"><g><path d="M 11.46875 -19.296875 C 14.351562 -19.296875 16.695312 -18.8125 18.5 -17.84375 C 20.3125 -16.882812 21.21875 -15.320312 21.21875 -13.15625 L 21.21875 -5.78125 C 21.21875 -5.382812 21.3125 -5.050781 21.5 -4.78125 C 21.695312 -4.519531 21.988281 -4.390625 22.375 -4.390625 L 23.65625 -4.390625 L 23.65625 -0.28125 C 23.582031 -0.238281 23.394531 -0.160156 23.09375 -0.046875 C 22.800781 0.0546875 22.378906 0.160156 21.828125 0.265625 C 21.285156 0.367188 20.65625 0.421875 19.9375 0.421875 C 18.5625 0.421875 17.425781 0.210938 16.53125 -0.203125 C 15.632812 -0.617188 15.019531 -1.191406 14.6875 -1.921875 C 13.78125 -1.210938 12.765625 -0.644531 11.640625 -0.21875 C 10.523438 0.207031 9.21875 0.421875 7.71875 0.421875 C 3.289062 0.421875 1.078125 -1.335938 1.078125 -4.859375 C 1.078125 -6.691406 1.566406 -8.085938 2.546875 -9.046875 C 3.535156 -10.015625 4.957031 -10.675781 6.8125 -11.03125 C 8.675781 -11.394531 11.109375 -11.578125 14.109375 -11.578125 L 14.109375 -12.5 C 14.109375 -13.238281 13.851562 -13.800781 13.34375 -14.1875 C 12.832031 -14.570312 12.171875 -14.765625 11.359375 -14.765625 C 10.617188 -14.765625 9.976562 -14.628906 9.4375 -14.359375 C 8.90625 -14.097656 8.640625 -13.679688 8.640625 -13.109375 L 8.640625 -12.96875 L 1.640625 -12.96875 C 1.617188 -13.09375 1.609375 -13.257812 1.609375 -13.46875 C 1.609375 -15.257812 2.457031 -16.675781 4.15625 -17.71875 C 5.863281 -18.769531 8.300781 -19.296875 11.46875 -19.296875 Z M 14.109375 -8.21875 C 12.085938 -8.21875 10.59375 -7.992188 9.625 -7.546875 C 8.664062 -7.109375 8.1875 -6.519531 8.1875 -5.78125 C 8.1875 -4.59375 8.992188 -4 10.609375 -4 C 11.535156 -4 12.347656 -4.25 13.046875 -4.75 C 13.753906 -5.25 14.109375 -5.867188 14.109375 -6.609375 Z M 14.109375 -8.21875 "/></g></g></g><g fill="#ffffff" fill-opacity="1"><g transform="translate(136.303057, 39.879492)"><g><path d="M 15.828125 0 L 15.359375 -2.859375 C 14.628906 -1.835938 13.660156 -1.035156 12.453125 -0.453125 C 11.253906 0.128906 9.984375 0.421875 8.640625 0.421875 C 6.453125 0.421875 4.8125 -0.179688 3.71875 -1.390625 C 2.625 -2.609375 2.078125 -4.359375 2.078125 -6.640625 L 2.078125 -18.875 L 9.1875 -18.875 L 9.1875 -7.5 C 9.1875 -6.695312 9.394531 -6.050781 9.8125 -5.5625 C 10.226562 -5.070312 10.816406 -4.828125 11.578125 -4.828125 C 12.460938 -4.828125 13.175781 -5.113281 13.71875 -5.6875 C 14.269531 -6.257812 14.546875 -6.960938 14.546875 -7.796875 L 14.546875 -18.875 L 21.65625 -18.875 L 21.65625 0 Z M 15.828125 0 "/></g></g></g><g fill="#ffffff" fill-opacity="1"><g transform="translate(156.486205, 39.879492)"><g><path d="M 11.109375 -19.296875 C 13.640625 -19.296875 15.78125 -18.800781 17.53125 -17.8125 C 19.28125 -16.820312 20.15625 -15.289062 20.15625 -13.21875 L 13.546875 -13.21875 C 13.546875 -13.914062 13.234375 -14.40625 12.609375 -14.6875 C 12.179688 -14.925781 11.644531 -15.046875 11 -15.046875 C 9.289062 -15.046875 8.4375 -14.640625 8.4375 -13.828125 C 8.4375 -13.378906 8.734375 -13.054688 9.328125 -12.859375 C 9.921875 -12.671875 10.894531 -12.46875 12.25 -12.25 C 13.925781 -12.019531 15.320312 -11.742188 16.4375 -11.421875 C 17.5625 -11.097656 18.539062 -10.523438 19.375 -9.703125 C 20.207031 -8.878906 20.625 -7.726562 20.625 -6.25 C 20.625 -3.84375 19.722656 -2.128906 17.921875 -1.109375 C 16.117188 -0.0859375 13.765625 0.421875 10.859375 0.421875 C 9.191406 0.421875 7.617188 0.191406 6.140625 -0.265625 C 4.671875 -0.734375 3.46875 -1.453125 2.53125 -2.421875 C 1.601562 -3.398438 1.140625 -4.640625 1.140625 -6.140625 L 7.75 -6.140625 L 7.75 -6 C 7.78125 -5.1875 8.117188 -4.617188 8.765625 -4.296875 C 9.421875 -3.984375 10.117188 -3.828125 10.859375 -3.828125 C 12.835938 -3.828125 13.828125 -4.289062 13.828125 -5.21875 C 13.828125 -5.695312 13.515625 -6.039062 12.890625 -6.25 C 12.273438 -6.46875 11.265625 -6.695312 9.859375 -6.9375 C 8.171875 -7.21875 6.785156 -7.523438 5.703125 -7.859375 C 4.617188 -8.191406 3.671875 -8.753906 2.859375 -9.546875 C 2.046875 -10.347656 1.640625 -11.46875 1.640625 -12.90625 C 1.640625 -15.207031 2.515625 -16.847656 4.265625 -17.828125 C 6.015625 -18.804688 8.296875 -19.296875 11.109375 -19.296875 Z M 11.109375 -19.296875 "/></g></g></g></svg>